<svg id="visual" viewBox="0 0 960 540" width="960" height="540" xmlns="http://www.w3.org/2000/svg" xmlns:xlink="http://www.w3.org/1999/xlink" version="1.1"><rect x="0" y="0" width="960" height="540" fill="#125bdb"></rect><defs><linearGradient id="grad1_0" x1="43.8%" y1="0%" x2="100%" y2="100%"><stop offset="14.444444444444446%" stop-color="#125bdb" stop-opacity="1"></stop><stop offset="85.55555555555554%" stop-color="#125bdb" stop-opacity="1"></stop></linearGradient></defs><defs><linearGradient id="grad2_0" x1="0%" y1="0%" x2="56.3%" y2="100%"><stop offset="14.444444444444446%" stop-color="#125bdb" stop-opacity="1"></stop><stop offset="85.55555555555554%" stop-color="#125bdb" stop-opacity="1"></stop></linearGradient></defs><g transform="translate(960, 0)"><path d="M0 486C-67.5 482.8 -135 479.5 -186 449C-237 418.5 -271.5 360.7 -314 314C-356.5 267.2 -407 231.5 -437 181C-467 130.5 -476.5 65.3 -486 0L0 0Z" fill="#001220"></path></g><g transform="translate(0, 540)"><path d="M0 -486C73.2 -488.4 146.3 -490.8 186 -449C225.7 -407.2 231.9 -321.1 274.4 -274.4C316.9 -227.6 395.7 -220.2 437 -181C478.3 -141.8 482.2 -70.9 486 0L0 0Z" fill="#001220"></path></g></svg>